# xmcd CD database file
#
# Track frame offsets:
#	150
#	1956
#	26907
#	52473
#	79519
#	105169
#	124997
#	143371
#	170784
#	194667
#	216075
#
# Disc length: 3290 seconds
#
# Revision: 0
# Processed by: cddbd v1.5.2PL0 Copyright (c) Steve Scherf et al.
# Submitted via: CDex 1.51
#
DISCID=990cd80b
DTITLE=Jack Brass Band - Happy Hour
DYEAR=2003
DGENRE=Jazz
TTITLE0=Intro
TTITLE1=Getaway
TTITLE2=Smoke That Fire
TTITLE3=Together
TTITLE4=I'll Fly Away
TTITLE5=Salty McB
TTITLE6=The Chicken
TTITLE7=Friends and Strangers
TTITLE8=Right Foot Forward
TTITLE9=St James Infirmary
TTITLE10=Carribean Second Line
EXTD=YEAR: 2003
EXTT0=
EXTT1=
EXTT2=
EXTT3=
EXTT4=
EXTT5=
EXTT6=
EXTT7=
EXTT8=
EXTT9=
EXTT10=
PLAYORDER=
